<svg xmlns="http://www.w3.org/2000/svg" viewBox="0 0 465.19 465.19"><defs><style>.cls-1{fill:#fff;}</style></defs><title>lhs-logo</title><g id="Layer_2" data-name="Layer 2"><g id="Calque_1" data-name="Calque 1"><path d="M465.19,232.57c0,128.5-104.13,232.62-232.61,232.62S0,361.07,0,232.57,104.14,0,232.58,0,465.19,104.12,465.19,232.57Z"/><path class="cls-1" d="M298,137.81a22.32,22.32,0,0,1,2.6-1.36,10.84,10.84,0,0,1,1.25-.43l.43-.13a97.46,97.46,0,0,1,8.21-14.45c3.22-4.88,5.36-8.1,5.36-14a19.91,19.91,0,0,0-.66-5c-.07-.27-.17-.53-.26-.79s-.13-.37-.19-.56a16.39,16.39,0,0,0-1.37-3.08l-.21-.39a5.28,5.28,0,0,0-.42-.69,17.75,17.75,0,0,0-2.88-3.34,1.36,1.36,0,0,1-.28-.18,18.56,18.56,0,0,0-3.48-2.27c-.39-.2-.76-.36-1.16-.53a26.55,26.55,0,0,0-3.39-1.16,6.3,6.3,0,0,1-.69-.17l-.62-.16a25.58,25.58,0,0,0-4.62-.46h-.3a27.11,27.11,0,0,0-4.1.42l-.86.09a7,7,0,0,0-1,.12,26.57,26.57,0,0,0-3.69,1.13,16.07,16.07,0,0,1,2.77,8.91c0,.19,0,.37,0,.55a8.54,8.54,0,0,1,1.9-.66l.35-.08a18.64,18.64,0,0,1,2.72-.41l.25-.05a4.21,4.21,0,0,1,1.18,0l.44.05a5.81,5.81,0,0,0,.72,0,16.53,16.53,0,0,1,2.77.7l.31.16.25.12a11.55,11.55,0,0,1,2,1.19,6.81,6.81,0,0,1,.56.42,9.84,9.84,0,0,1,1.93,2.06,1.67,1.67,0,0,1,.17.26,12.9,12.9,0,0,1,1.14,2.35c.09.31.17.53.24.78a11.67,11.67,0,0,1,.48,3.24c0,4.53-2.18,7.9-4.71,11.8a52.27,52.27,0,0,0-6.37,12.42l.09.06A8.91,8.91,0,0,1,298,137.81Z"/><path class="cls-1" d="M272.63,121.69a2.33,2.33,0,0,1,1.75.74,11.34,11.34,0,0,1,2.37,3.58,120,120,0,0,1,4.87-12.58c1.87-4.25,3.34-7.62,3.76-11.62.07-.79.12-1.6.12-2.42a13.4,13.4,0,0,0-2.86-8.29,13.69,13.69,0,0,0-11-5,13.37,13.37,0,0,0-2.48.24,4.86,4.86,0,0,0-.55.11l-.31.08c-.21.06-.45.11-.69.16s-.63.14-.94.22l-1.12.35-.8.24c-.45.13-.9.27-1.38.43L263,88c-.46.14-.92.28-1.44.46s-1,.26-1.5.41-.95.24-1.45.35l-.51.12a15.7,15.7,0,0,1-1.59.35c-.66.14-1.38.23-2.12.33l-.39,0c-.24,0-.44,0-.65.09a8.1,8.1,0,0,1-.91.11,40.92,40.92,0,0,1-4.51.21c-1.44,0-3.33,0-5.5-.2.41,1.26.89,2.52,1.45,3.81.74,1.69,1.29,3.11,1.77,4.55a8.25,8.25,0,0,0,1.22,0l.88,0c1.64,0,3-.13,4.22-.27.37-.06.82-.09,1.21-.12,1.31-.19,3.07-.45,4.73-.8l4.11-.76.73-.13a20.94,20.94,0,0,1,3.33-.3,1.54,1.54,0,0,1,.43-.06l.24,0c.32,0,.63,0,.95.08a3.55,3.55,0,0,0,.47.06,5,5,0,0,0,.6.07l.5,0a11.65,11.65,0,0,1,2.6,1,6.38,6.38,0,0,1,3,3.78l0,.21a5.6,5.6,0,0,0,.22,1.24c.25,2.78-.65,5.76-1.59,8.6a59.76,59.76,0,0,1-4,8.56c-.64,1.2-1.29,2.42-1.94,3.71a11.09,11.09,0,0,1,4.82-1.86Z"/><path class="cls-1" d="M174.82,89.23l-.87-.09a26.84,26.84,0,0,0-4.08-.42h-.31a25.76,25.76,0,0,0-4.6.46l-.63.17-.72.17a25.08,25.08,0,0,0-3.27,1.11l-.27.11c-.34.15-.67.29-1,.45a20.78,20.78,0,0,0-3.53,2.3l-.17.12A17.11,17.11,0,0,0,152.46,97c-.21.32-.43.72-.62,1.08a17.6,17.6,0,0,0-1.4,3.11c-.15.45-.29.88-.4,1.34a19,19,0,0,0-.71,5c0,5.85,2.13,9.07,5.36,14a98.76,98.76,0,0,1,8.21,14.45l.31.09a11.11,11.11,0,0,1,1.37.47,20.9,20.9,0,0,1,2.61,1.37,9.08,9.08,0,0,1,3.15-3.45l.07,0A52.37,52.37,0,0,0,164,121.93c-2.53-3.9-4.72-7.28-4.72-11.81a11.7,11.7,0,0,1,.48-3.22l.06-.19c.06-.18.11-.36.17-.56a12.76,12.76,0,0,1,1.12-2.33,2.44,2.44,0,0,0,.15-.24,10.57,10.57,0,0,1,2-2.15,4.38,4.38,0,0,1,.45-.33l.15-.1a9.43,9.43,0,0,1,2-1.18,4.48,4.48,0,0,1,.49-.26,15.76,15.76,0,0,1,2.78-.72,4.65,4.65,0,0,0,.69,0c.2,0,.35,0,.5-.05a4.22,4.22,0,0,1,1.18,0l.24.05a18.31,18.31,0,0,1,2.7.41l.35.08a9.08,9.08,0,0,1,.92.25,7.54,7.54,0,0,1,1,.42c0-.18,0-.37,0-.56a15.91,15.91,0,0,1,2.77-8.91,28.84,28.84,0,0,0-3.72-1.13A7,7,0,0,0,174.82,89.23Z"/><path class="cls-1" d="M203.76,96.72l2.12.4,1.42.26c1.29.27,2.75.51,4.74.8.36,0,.8.06,1.19.12,1.18.14,2.57.22,4.21.27l.88,0a9.59,9.59,0,0,0,1.23,0c.44-1.35.94-2.55,1.42-3.73l.33-.81c.56-1.28,1-2.53,1.46-3.82-2.17.19-4,.2-5.49.2a42.19,42.19,0,0,1-4.55-.21c-.3,0-.61-.07-.9-.11l-.58-.09-.42,0c-.77-.1-1.5-.19-2.17-.34s-1-.2-1.54-.32c-.29-.08-.59-.15-.89-.21l-1.12-.28-1.16-.34-.24-.07-1-.31-.91-.28-1-.32-1-.32c-.41-.13-.77-.25-1.19-.36l-1.11-.26-.84-.2c-.18,0-.36-.09-.51-.11a14.18,14.18,0,0,0-2.52-.24,13.64,13.64,0,0,0-11,5,13.21,13.21,0,0,0-2.89,8.29c0,.81.05,1.62.13,2.42.42,4,1.89,7.36,3.75,11.61A119,119,0,0,1,188.44,126a11.36,11.36,0,0,1,2.38-3.59,2.32,2.32,0,0,1,1.74-.73h.18a11.33,11.33,0,0,1,4.88,1.86c-.64-1.25-1.28-2.45-1.9-3.61a59.61,59.61,0,0,1-4-8.65c-1-2.81-1.85-5.79-1.66-8.47a6.09,6.09,0,0,0,.27-1.48,6.31,6.31,0,0,1,3-3.88,11,11,0,0,1,2.55-1c.22,0,.39,0,.55-.07a4.87,4.87,0,0,0,.55-.06l.55-.07c.31,0,.61-.07.92-.08l0,0h.21a1.53,1.53,0,0,1,.41.05,22.54,22.54,0,0,1,3.35.31Z"/><path class="cls-1" d="M246.15,73.4a10.86,10.86,0,0,1,1.41-.23c.29,0,.61-.06.92-.09h.23c.4,0,.7,0,1,0a17.23,17.23,0,0,0-1.8-1.65,3.88,3.88,0,0,0-.38-.27l-.47-.33-.27-.18a7.59,7.59,0,0,0-1.22-.72,3.87,3.87,0,0,0-.75-.31l-.13,0a7.47,7.47,0,0,0-1.23-.38,4.35,4.35,0,0,0-.67-.1l-.36,0a4.46,4.46,0,0,0-.73,0,7.72,7.72,0,0,0-1.05.13l-.2,0-.38.09a6.49,6.49,0,0,0-.91.33,1.61,1.61,0,0,1-.35.16,3.67,3.67,0,0,0-.45.26l-.23.15a1.28,1.28,0,0,1-.23.14l-.2.18-1.46,1.23.64-1.81c2.16-6.08-2.77-15-4.29-17.49-1.53,2.53-6.48,11.42-4.31,17.49l.58,1.64-1.38-1a1.9,1.9,0,0,1-.24-.19.75.75,0,0,1-.24-.18l-.61-.36a2.37,2.37,0,0,1-.47-.2,5.64,5.64,0,0,0-.75-.27,2.78,2.78,0,0,0-.53-.14A8.8,8.8,0,0,0,223.5,69a4.67,4.67,0,0,0-.76,0l-.36,0a4.92,4.92,0,0,0-.64.09,7.49,7.49,0,0,0-1.18.36h0l-.16,0a3.59,3.59,0,0,0-.74.3,9.92,9.92,0,0,0-1.58,1l-.35.24a3,3,0,0,0-.44.31A18.72,18.72,0,0,0,215.46,73c.29,0,.59,0,.94,0h.32c.31,0,.62,0,.93.09a12.81,12.81,0,0,1,1.44.23l.18,0a8.67,8.67,0,0,1,.88.21c.38.11.77.27,1.15.42l.37.16.71.34a10.75,10.75,0,0,1,1.13.79l.24.19a3.63,3.63,0,0,1,.5.45,5.1,5.1,0,0,1,.89,1.11,3.35,3.35,0,0,1,.55.81,6.15,6.15,0,0,1,.6,1.43,6.42,6.42,0,0,1,.31.84,10.71,10.71,0,0,1,.28,2l.11.85a16.27,16.27,0,0,1-.23,3.38A33.65,33.65,0,0,1,224,95.22c-1.86,4.41-3.78,9-3.5,18.81a70.16,70.16,0,0,0,1.74,13.49,7.54,7.54,0,0,1,1.08.4l.25.13c.72-5.2,5.13-9.18,7.74-10.76a2.44,2.44,0,0,1,2.55,0c2.61,1.59,7,5.59,7.72,10.75a1.51,1.51,0,0,1,.26-.12,6.31,6.31,0,0,1,1.07-.4A72,72,0,0,0,244.7,114c.29-9.84-1.65-14.39-3.52-18.8a34,34,0,0,1-2.76-8.8,21.82,21.82,0,0,1-.22-3.32,3.54,3.54,0,0,1,.06-.45,3,3,0,0,0,.05-.44,10,10,0,0,1,.28-2,5.74,5.74,0,0,1,.25-.73L239,79a6.22,6.22,0,0,1,.48-1.09,3.67,3.67,0,0,1,.55-.82c.1-.12.18-.24.26-.35a5.79,5.79,0,0,1,.59-.72,3.84,3.84,0,0,1,.45-.37c.11-.09.23-.17.33-.26a9.82,9.82,0,0,1,1.09-.77,5.2,5.2,0,0,1,.53-.26l.41-.19.2-.09c.35-.14.73-.29,1.11-.4a7.14,7.14,0,0,1,.93-.22Z"/><polygon class="cls-1" points="220.38 69.02 220.38 69.02 220.38 69.02 220.38 69.02"/><path class="cls-1" d="M159,140.55a2.5,2.5,0,0,0,.33.26,3.15,3.15,0,0,1,.29.22,31.53,31.53,0,0,1,3.51,3.35,7.35,7.35,0,0,1,.56.67,37.14,37.14,0,0,1,2.77,3.66,1.46,1.46,0,0,1,.18.26.94.94,0,0,0,.12.18c.84,1.41,1.5,2.58,2.08,3.77l.2.31c.57,1.21,1.1,2.48,1.6,3.79l.19.49c.46,1.26.8,2.37,1.11,3.4a2.21,2.21,0,0,1,.16.55c.26.87.48,1.74.64,2.52,4.1-1.36,24.62-7.54,59.86-7.54,35.09,0,55.71,6.19,59.83,7.54.18-.75.4-1.6.65-2.53a3,3,0,0,1,.16-.59c.3-1,.64-2.09,1.05-3.24a3.21,3.21,0,0,0,.12-.31l.12-.31c.44-1.11,1-2.44,1.64-3.78a3,3,0,0,1,.15-.27,38.74,38.74,0,0,1,2.11-3.77l.16-.28.1-.16a41.22,41.22,0,0,1,2.81-3.73l.25-.29a3.38,3.38,0,0,1,.31-.35,33.32,33.32,0,0,1,3.49-3.34l.29-.22c.11-.08.22-.15.31-.23a29.75,29.75,0,0,1,3.41-2.31,11.13,11.13,0,0,0-2.14-.25c-.32,0-.58,0-.83,0a11.78,11.78,0,0,0-1.81.22l-.67.12a15.23,15.23,0,0,0-2.34.77,18.06,18.06,0,0,0-4.78,3.06l-.9.86,0-1.24a6.1,6.1,0,0,0-2.86-5,9.56,9.56,0,0,0-3.55-1.28,15.59,15.59,0,0,1,.92,1.76,7,7,0,0,1,.28.71l.11.31c.1.28.2.53.3.78s.28.74.4,1.13a8.13,8.13,0,0,1,.17.89c0,.15,0,.28.07.42l.06.32a8.79,8.79,0,0,1,.21,1.48,8.42,8.42,0,0,1,0,.87v.41a11.74,11.74,0,0,1-.11,1.66,5,5,0,0,1-.21.87c0,.11-.07.22-.11.34a5.61,5.61,0,0,1-.56,1.49,3.64,3.64,0,0,1-.64,1,8.51,8.51,0,0,1-1,1.11,5.85,5.85,0,0,1-1.05.68,8,8,0,0,1-1.59.6,10.35,10.35,0,0,1-1.46.24l-.23.06a2.51,2.51,0,0,1-.68.1,14.11,14.11,0,0,1-2.11-.18c-5.35-.85-7.07-3.83-7.57-6.19-1-4.73,2-10.43,5.69-13.23a4.68,4.68,0,0,0-1-.29l-.24,0-.19,0h-.07a1.63,1.63,0,0,0-.42.06l-.13,0a4.32,4.32,0,0,0-1.43.36,2.6,2.6,0,0,0-.46.2,7,7,0,0,0-1.16.83,2.28,2.28,0,0,0-.37.32l-2,2.35,1.09-2.86c.08-.22,2-5.33-1.8-9.44a8.43,8.43,0,0,0-7.13,8.08l-.09,1.34-.82-1a7.87,7.87,0,0,0-1.21-1.18,5.4,5.4,0,0,0-1.24-.72l-.19-.13a.73.73,0,0,1-.27-.09,6,6,0,0,0-1.8-.3H259a16.77,16.77,0,0,1,3.16,6.35c1.14,4.17.4,7.93-2,10.32a9.31,9.31,0,0,1-3.18,1.95,3.51,3.51,0,0,1-.82.15,3.31,3.31,0,0,0-.51.07l-.45.11a10.37,10.37,0,0,1-2.68.4c-5.5,0-9.11-2.51-10-6.76a12.48,12.48,0,0,1,5.74-12.77,3.49,3.49,0,0,0-1-.5,2.18,2.18,0,0,0-.49-.08,4.13,4.13,0,0,0-1.56,0,8.78,8.78,0,0,0-2.06.71,20.89,20.89,0,0,0-4.56,3.46l-2.59,2.7,1.76-3.29c3.65-6.86-3.63-12.4-5.15-13.45-1.57,1.06-8.88,6.5-5.18,13.45l1.76,3.3L226.6,134a20.89,20.89,0,0,0-4.56-3.46,8.24,8.24,0,0,0-2.06-.71,7.29,7.29,0,0,0-2.08.11,3.33,3.33,0,0,0-1,.5,12.49,12.49,0,0,1,5.74,12.76c-.92,4.26-4.53,6.73-9.91,6.77a10.29,10.29,0,0,1-2.85-.42l-.35-.08a2.92,2.92,0,0,0-.54-.08,3.8,3.8,0,0,1-.83-.15,8.47,8.47,0,0,1-3.15-2c-2.4-2.35-3.16-6.11-2.07-10.3a16.66,16.66,0,0,1,3.2-6.36h-.63a5.57,5.57,0,0,0-1.93.34l-.29-.44.14.51-.2.11a6.14,6.14,0,0,0-1.28.72,6.86,6.86,0,0,0-1.19,1.17l-.84,1.08-.1-1.36a8.53,8.53,0,0,0-7.12-8.08c-3.76,4.11-1.88,9.22-1.8,9.44l1.14,3-2-2.46a2.19,2.19,0,0,0-.32-.29,10.3,10.3,0,0,0-1.19-.87,2.13,2.13,0,0,0-.39-.15,4.32,4.32,0,0,0-1.48-.39l-.16,0a1.94,1.94,0,0,0-.4-.06l-.52.08a4.6,4.6,0,0,0-1,.29c3.66,2.8,6.7,8.5,5.69,13.23-.5,2.36-2.22,5.34-7.57,6.19a7.84,7.84,0,0,1-2.78.08,1.27,1.27,0,0,0-.28-.06,10.65,10.65,0,0,1-1.41-.23,6.74,6.74,0,0,1-1.58-.63,4.14,4.14,0,0,1-1.08-.66,7.82,7.82,0,0,1-1-1.11l-.19-.26a3.79,3.79,0,0,1-.49-.79,7,7,0,0,1-.55-1.46c0-.18-.08-.3-.12-.44a4.32,4.32,0,0,1-.17-.71c0-.37-.06-.72-.07-1.08,0-.21,0-.41,0-.62v-.43a7.85,7.85,0,0,1,0-.84,13.65,13.65,0,0,1,.25-1.7l0-.15c.09-.32.13-.59.18-.86l0-.32c.14-.5.3-.93.46-1.35l.24-.64c.1-.22.15-.38.21-.54s.11-.32.18-.48a19.57,19.57,0,0,1,1-1.76,9.42,9.42,0,0,0-3.56,1.28,6.26,6.26,0,0,0-2.87,5V143l-.88-.85a17.9,17.9,0,0,0-4.77-3.06,17,17,0,0,0-2.23-.75.47.47,0,0,1-.22,0l-.53-.08a10.18,10.18,0,0,0-1.79-.23c-.3,0-.58,0-.86,0a11.35,11.35,0,0,0-2.16.25A31.48,31.48,0,0,1,159,140.55Z"/><path class="cls-1" d="M173.31,166.9l.13.64,2.4,12.5c3.56-1,24.22-6.1,56.77-6.1s53.19,5.14,56.75,6.1l2.52-13.13c-3.14-1.06-23.94-7.56-59.27-7.56S176.48,165.84,173.31,166.9Z"/><path class="cls-1" d="M251.21,213.84c17.31,1.55,19.52,3.06,19.52,22.5v37H194.45v-37c0-19.43,2.17-20.94,19.05-22.5v-5.69h-60v5.69c18.09,1.54,20.41,2.66,20.41,22.5v91.75c0,19.82-2.27,21-20,22.52v5.68h60.69v-5.68c-17.88-1.56-20.19-2.69-20.19-22.52V282.4h76.28v45.69c0,19.07-1.58,20.88-21.11,22.53v5.67h61.85v-5.68c-17.88-1.56-20.18-2.69-20.18-22.52V236.34c0-19.09,1.53-20.9,20.4-22.5v-5.69H251.21Z"/></g></g></svg>